<!DOCTYPE svg PUBLIC "-//W3C//DTD SVG 1.1//EN" "http://www.w3.org/Graphics/SVG/1.1/DTD/svg11.dtd">
<svg xmlns="http://www.w3.org/2000/svg" viewBox="0 0 498 600">
<path fill="#b17467" d="M254.761 66.745c-.947 1.929-2.013 2.684-3.557 2.517-1.212-.131-2.204.206-2.204.75 0 .543.45.988 1 .988s1 .45 1 1-.675 1-1.5 1-1.5.675-1.5 1.5-.402 1.5-.893 1.5-1.152-.675-1.469-1.5c-.909-2.369-2.579-1.745-2.008.75 1.102 4.819.938 5.196-2.38 5.458-5.851.461-6.68.443-13.141-.288-7.773-.88-13.264 1.272-12.333 4.832.455 1.74.186 1.971-1.719 1.473-1.816-.475-5.811.498-7.926 1.93-1.497 1.013 3.078 3.304 4.78 2.393 2.534-1.357 6.787-1.346 7.63.019 1.1 1.779-.006 2.078-9.6 2.595-5.075.273-10.317.911-11.649 1.417-3.08 1.171-3.556 1.158-2.792-.079.766-1.24 1.609-1.166-22.5-1.982-6.942-.235-17 1.901-17 3.61 0 .755.675 1.372 1.5 1.372s1.5.45 1.5 1-1.012 1.014-2.25 1.032c-1.238.017-3.124.692-4.191 1.5-1.693 1.28-1.725 1.468-.25 1.468 2.254 0 2.151 1.683-.179 2.931-2.943 1.575-10.13 2.967-10.13 1.963 0-.492-.731-.894-1.625-.894-1.246 0-1.495.652-1.065 2.8.655 3.273-.167 3.916-8.56 6.704-3.162 1.051-5.75 2.492-5.75 3.203 0 .711-.511 1.293-1.135 1.293-.625 0-2.205 1.154-3.512 2.564-1.457 1.573-3.048 2.361-4.114 2.04-1.825-.549-6.024 1.945-4.999 2.969.684.685-2.801 4.427-4.123 4.427-.486 0-1.161 1.012-1.5 2.25-.449 1.639-.842 1.901-1.447.966-.632-.978-1.406-.708-3.25 1.131-1.331 1.329-3.32 2.608-4.42 2.844-1.1.235-1.868 1.021-1.707 1.746.193.873-.385 1.141-1.714.794-2.37-.62-4.713 1.786-4.272 4.389.38 2.244-3.39 3.372-8.502 2.542-4.093-.664-7.305.66-7.305 3.011 0 1.37.919 1.509 6.324.955 3.478-.356 6.597-.374 6.931-.04 1.031 1.031-.382 3.412-2.026 3.412-2.165 0-9.229 3.209-9.229 4.192 0 .445-.891.808-1.981.808-2.215 0-2.884 1.838-3.455 9.5-.205 2.75-.943 8.6-1.639 13-.696 4.4-1.379 12.05-1.516 17-.138 4.95-.476 13.95-.751 20-.276 6.05-.073 13.025.449 15.5 2.548 12.068 3.491 15.094 7.623 24.438 2.447 5.534 5.124 10.817 5.948 11.739 2.555 2.857 3.468 9.004 1.638 11.026-1.083 1.197-1.382 2.717-.955 4.854.581 2.901.354 3.216-3.369 4.678-4.439 1.744-4.455 1.816-2.576 11.265l1.293 6.5.723-4c1.134-6.267 1.307-6.5 4.837-6.5 1.832 0 3.869-.538 4.525-1.194.926-.926 1.655-.702 3.239 1 1.125 1.206 2.618 2.194 3.319 2.194 1.935 0 6.418 5.148 7.185 8.249.374 1.512 1.733 3.762 3.021 5 2.145 2.062 2.217 2.44.868 4.501-1.24 1.895-1.251 2.25-.071 2.25.77 0 1.969.686 2.665 1.524s1.485 1.304 1.754 1.035c1.544-1.544 4.226 1.81 4.226 5.285 0 2.076.62 4.622 1.378 5.658 2.837 3.88 3.715-8.62 1.476-21.002-1.099-6.075-9.071-31.542-10.874-34.736-1.23-2.181-1.277-5.764-.075-5.764.498 0 .702-2.812.454-6.25-.248-3.437-.392-8.05-.32-10.25.43-13.011.236-15.533-1.688-21.882-.399-1.32-.793-1.521-1.318-.671-1.12 1.812-2.059-7.03-.964-9.076.512-.957.938-3.907.946-6.555.009-2.649.413-5.444.899-6.212 1.149-1.814 4.124-.674 4.779 1.832.3 1.144 1.073 1.707 1.906 1.388 1.042-.4 1.401.386 1.401 3.069 0 1.984.45 3.607 1 3.607s1-.81 1-1.801c0-2.196 2.228-7.18 3.215-7.191.393-.004 1.252.995 1.908 2.221.656 1.227 1.797 2.834 2.535 3.572 1.34 1.34 1.73 3.145 1.394 6.449-.258 2.54 1.399 2.144 2.92-.697 1.75-3.27 2.522-3.459 9.712-2.371 6.902 1.045 9.809-.017 17.941-6.556 2.891-2.325 6.011-3.688 10.434-4.558 8.721-1.716 14.286-4.889 22.449-12.802 9.534-9.242 10.605-10.639 7.141-9.323-3.007 1.144-3.011 1.139-1.635-2.48.679-1.786 1.515-2.474 2.532-2.084.992.381 1.831-.241 2.423-1.797 1.281-3.37 5.019-5.837 6.713-4.431.783.65 1.318.696 1.318.114 0-.539 3.611-3.112 8.024-5.718 4.414-2.606 8.576-5.263 9.25-5.904.674-.641 4.322-2.72 8.105-4.619 3.784-1.9 7.804-4.705 8.934-6.234 1.848-2.5 2.263-2.643 4.121-1.425 1.136.744 2.741 1.031 3.566.636.825-.394 2.85-1.404 4.5-2.243 1.65-.84 4.575-1.863 6.5-2.273 1.925-.41 5.303-1.983 7.506-3.495 8.127-5.579 16.259-8.41 20.035-6.975 1.586.604 2.45.511 2.717-.29.597-1.789 9.171-1.057 13.489 1.15 2.064 1.055 6.514 4.103 9.889 6.772 3.375 2.669 8.831 6.789 12.125 9.155 7.513 5.398 11.045 9.067 9.629 10.001-1.713 1.128.31 6.744 3.622 10.055 1.643 1.643 2.988 3.671 2.988 4.506 0 .835.403 1.767.896 2.072 3.847 2.377 9.424 25.371 7.29 30.055-.652 1.432-1.186 3.857-1.186 5.389 0 1.533-.284 3.071-.631 3.418-.708.708-4.527-1.073-5.501-2.565-.347-.532-2.086-1.137-3.865-1.344-3.082-.359-3.202-.248-2.546 2.367 1.906 7.61 1.844 7.684-6.957 8.347-4.668.351-8.521.196-9.25-.373-.826-.644-1.716-.588-2.623.165-.756.627-2.048.881-2.871.565-.824-.316-2.199.126-3.056.982-.856.857-2.463 1.558-3.57 1.558-1.106 0-2.29.45-2.63 1-.34.55-2.729 1.005-5.309 1.011-8.353.019-24.161 6.41-24.221 9.792-.026 1.452-.195 1.414-1.165-.259-1.551-2.673-2.668.044-2.656 6.456.005 2.475.236 3.938.513 3.25.644-1.594 3.046-1.626 3.572-.047.423 1.269 10.079-.437 14.22-2.512 1.822-.914 4.096-1.602 17.046-5.16 6.25-1.718 19.224-.994 21.724 1.212 1.47 1.296 2.192 1.327 4.885.212 2.815-1.166 3.307-1.107 4.513.543 1.211 1.655 1.631 1.704 3.951.463 2.348-1.257 2.754-1.192 4.261.68.916 1.138 2.439 2.34 3.384 2.671.946.33 2.399 2.228 3.229 4.216 1.54 3.686 3.553 3.92 3.553.413 0-1.274.687-1.941 2-1.941 2.027 0 2.28.521 2.421 5 .043 1.375.573 2.41 1.177 2.301.987-.179 4.855 10.154 5.69 15.199.182 1.1.867 1.887 1.521 1.75.655-.138 1.191.452 1.191 1.309s.369 1.331.819 1.053c.451-.279.622.838.381 2.48-.266 1.812.162 3.66 1.088 4.697.839.941 2.03 3.605 2.646 5.919 1.513 5.684 2.562 6.009 4.418 1.371 2.711-6.775 5.625-4.971 3.566 2.208-1.355 4.724-1.117 11.898.552 16.628.838 2.376 1.017 3.886.416 3.514-.58-.358-2.384.861-4.009 2.71l-2.954 3.361.578-10.75c.338-6.282.196-10.75-.34-10.75-1.09 0-2.652 29.879-1.716 32.828 1.475 4.646 13.178-3.287 13.342-9.044.048-1.682.544-3.515 1.103-4.074 1.316-1.316-.417-4.71-2.405-4.71-1.003 0-.475-1.375 1.728-4.5 3.49-4.951 4.427-5.254 8.975-2.903 5.943 3.074 11-2.292 10.683-11.334-.092-2.62.134-5.71.502-6.868.368-1.158.2-3.183-.375-4.5-1.027-2.356-1.035-2.351-.517.294.289 1.479.114 2.943-.39 3.255-.504.312-1.22 2.362-1.591 4.556s-1.085 4.243-1.587 4.554c-.502.31-.913 1.677-.913 3.036 0 2.691-2.516 4.294-4.16 2.65-.7-.7-.675-1.68.081-3.093.802-1.499.814-4.764.043-11.857-1.522-14.012-1.269-13.45-8.945-19.845l-7.016-5.844 2.998-1.899c3.024-1.914 3.846-4.06 1.995-5.204-.552-.341-.71-1.788-.352-3.215.477-1.9.149-2.961-1.224-3.965-1.442-1.055-1.633-1.757-.826-3.035 1.432-2.272 3.406-2.792 3.406-.898 0 .877.576 1.331 1.323 1.044 1.676-.642 12.903 21.828 14.652 29.324 1.425 6.105 2.467 7.157 4.089 4.128 1.429-2.67.237-7.217-4.559-17.391-4.017-8.521-5.279-17.407-2.008-14.136.824.824 1.23 2.193.904 3.042-.326.85.351 2.744 1.503 4.209 1.294 1.645 2.096 4.121 2.096 6.471 0 2.093.485 4.106 1.077 4.472 2.67 1.65-3.872-25.268-8.357-34.382-2.004-4.074-6.717-6.663-12.133-6.664l-4.913-.002.085-6c.046-3.3.555-9.15 1.131-13 3.015-20.174 2.991-19.829 1.526-22.662-1.671-3.231-1.864-8.443-.348-9.38.588-.363.756-1.402.375-2.309-.709-1.686-.79-2.348-1.826-14.898-.61-7.393-2.104-11.251-4.358-11.251-1.555 0-1.624-1.235-.152-2.707.81-.81.474-1.438-1.25-2.337-1.296-.675-4.607-3.138-7.357-5.471-9.906-8.407-12.5-11.287-12.5-13.883 0-1.503-.808-2.964-1.988-3.596-1.094-.585-2.267-2.176-2.609-3.535-.341-1.359-1.021-2.471-1.511-2.471-.491 0-.892-.618-.892-1.374 0-1.758-6.593-8.817-10.5-11.243-5.506-3.419-17.78-13.74-18.22-15.322-.617-2.218-8.495-7.022-14.061-8.575-4.8-1.34-10.111-3.123-13.719-4.608-10.376-4.269-12.847-4.935-13.646-3.677-.62.978-.827.882-.839-.389-.008-.928-.803-1.718-1.765-1.756-5.644-.22-15.062-1.803-16.943-2.847-1.958-1.088-2.338-.923-3.546 1.536m3.956 5.551c-.332.865.542 1.375 2.63 1.534 2.984.227 3.037.169 1.141-1.264-2.469-1.866-3.141-1.914-3.771-.27m26.831 2.115c1.061.777 2.355 1.149 2.875.828.519-.321.074-.925-.989-1.341-3.132-1.227-3.958-1.002-1.886.513m-5.735.272c.721.289 1.584.253 1.916-.079.332-.332-.258-.568-1.312-.525-1.165.048-1.402.285-.604.604M211 80.941c0 .518.45 1.219 1 1.559.55.34 1-.084 1-.941S212.55 80 212 80s-1 .423-1 .941M146.5 82c-.34.55-.168 1 .382 1s1.278-.45 1.618-1c.34-.55.168-1-.382-1s-1.278.45-1.618 1m-2.687 2.683c.721.289 1.584.253 1.916-.079.332-.332-.258-.568-1.312-.525-1.165.048-1.402.285-.604.604M174.5 91c-.34.55.282 1 1.382 1 1.1 0 2.278-.45 2.618-1 .34-.55-.282-1-1.382-1-1.1 0-2.278.45-2.618 1m48.002-.004c-.376.609 1.074 1.029 3.689 1.067 3.475.052 3.89.233 2.144.937-1.19.48-2.54 1.504-3 2.277-.9 1.514-5.335 3.012-5.335 1.803 0-.404-1.463-.5-3.25-.215l-3.25.518 3.925.68c2.159.373 5.418.267 7.242-.237 2.515-.694 14.34-.639 17.205.08 1.354.34-2.535 2.976-5.86 3.972-2.207.661-4.017 1.747-4.023 2.412-.006.666-1.532 2.688-3.392 4.495-1.86 1.807-3.628 4.225-3.928 5.373-.391 1.493.766.775 4.064-2.522 3.161-3.161 5.733-4.795 8.188-5.198 1.968-.324 4.704-.995 6.079-1.491 3.38-1.22 10.547-1.42 15.903-.444 3.236.589 4.215.496 3.691-.351-.392-.633-.235-1.152.347-1.152s1.059-.405 1.059-.9-1.472-.9-3.272-.9c-1.799 0-5.287-.573-7.75-1.274l-4.478-1.275 3-.707c1.65-.389 2.325-.792 1.5-.895-6.159-.768-7.387-1.04-7.909-1.748-.325-.44-2.166-.877-4.091-.97-1.925-.093-5.525-.831-8-1.64-7.15-2.338-9.832-2.771-10.498-1.695m-98.686 1.139c-1.164.738-.18.865 6.684.865.275 0 .5-.338.5-.75 0-1.043-5.579-1.133-7.184-.115M118 96c-1.988 1.285.51 1.285 3.5 0l2-.859-2-.055c-1.1-.031-2.675.381-3.5.914m92.51 2.016c.346.559 1.047.758 1.559.441 1.387-.857 1.129-1.457-.628-1.457-.857 0-1.276.457-.931 1.016m-101.287 1.541c-1.223.856-2.223 2.206-2.223 3 0 .93-1.045 1.443-2.941 1.443-1.618 0-3.219.45-3.559 1-1.635 2.645 12.317.601 14.5-2.124.275-.344 1.963-.942 3.75-1.33 4.108-.891 4.16-2.114.125-2.921-4.89-.978-7.252-.75-9.652.932m45.219 4.349c.308.498 1.46.671 2.559.383 2.752-.719 2.504-1.289-.56-1.289-1.407 0-2.307.408-1.999.906m22.808-.217c.963.252 2.537.252 3.5 0 .963-.251.175-.457-1.75-.457s-2.713.206-1.75.457m-83.651 6.15c-.285.462 1.057.899 2.982.972 2.039.076 3.251-.274 2.901-.84-.735-1.19-5.167-1.289-5.883-.132m18.901.861c-1.1.258-2.562 1.192-3.25 2.075-.687.884-1.25 1.11-1.25.503 0-.751-.879-.823-2.75-.224-1.513.484-5.64 1.232-9.173 1.663-4.09.499-6.591 1.295-6.886 2.192-.338 1.028.047 1.212 1.423.679 3.545-1.372 10.386-2.334 10.386-1.459 0 .479-.922.871-2.05.871-2.451 0-7.12 2.295-8.81 4.331-.667.804-2.066 1.24-3.108.967-1.823-.477-6.936 2.409-7.001 3.952-.017.412 1.206.807 2.719.876 2.48.114 2.381.23-1 1.177-3.719 1.041-4.614 2.045-2.815 3.157.514.318-.161 1.76-1.5 3.205-1.549 1.671-2.435 3.818-2.435 5.899 0 1.8-.258 3.946-.574 4.769-.758 1.974 7.679 1.042 8.874-.98.44-.744 1.677-1.353 2.75-1.353 1.072 0 1.95-.675 1.95-1.5s.9-2.4 2-3.5 1.55-2 1-2-1-.465-1-1.033c0-.569 1.463-.956 3.25-.862 5.548.294 6.08.082 4.286-1.712-1.477-1.477-1.34-1.873 1.678-4.87 1.807-1.794 3.592-3.088 3.967-2.876.374.212.963-.072 1.309-.631.345-.559 1.614-1.08 2.819-1.158 1.205-.078.391-.464-1.809-.858l-4-.716 3.809-.142c2.095-.078 3.566-.535 3.269-1.016-.297-.481.533-1.68 1.846-2.666 1.312-.986 2.179-2.331 1.926-2.99-.272-.708.817-1.453 2.661-1.822 1.739-.348 2.845-1.073 2.496-1.636-.648-1.049-1.606-1.108-5.007-.312m16.144 1.836c-6.994 1.524-10.518 4.105-4.144 3.035 5.863-.984 10.5-2.595 10.5-3.649 0-.507-.113-.863-.25-.792-.137.072-2.885.704-6.106 1.406M104.5 118c-.34.55.309 1 1.441 1 1.132 0 2.059-.45 2.059-1s-.648-1-1.441-1-1.719.45-2.059 1m10 3c-.351.567.49 1 1.941 1 1.407 0 2.559-.45 2.559-1s-.873-1-1.941-1-2.219.45-2.559 1M84 125c0 .55.45 1 1 1s1-.45 1-1-.45-1-1-1-1 .45-1 1m247.638 46.5c.317.825.753 1.5.969 1.5.216 0 .393-.675.393-1.5s-.436-1.5-.969-1.5c-.532 0-.709.675-.393 1.5m-153.397 4.486c-1.571 2.516-1.564 3.075.031 2.463 2.007-.77 4.055-4.449 2.477-4.449-.697 0-1.826.894-2.508 1.986M126 218.345c0 .74.823 2.09 1.829 3 2.08 1.882 4.206 2.29 2.371.455-.66-.66-1.2-2.01-1.2-3 0-.99-.675-1.8-1.5-1.8s-1.5.605-1.5 1.345m10.5-.345c.34.55 1.041 1 1.559 1s.941-.45.941-1-.702-1-1.559-1-1.281.45-.941 1M354 250.5c0 .825.45 1.5 1 1.5s1-.675 1-1.5-.45-1.5-1-1.5-1 .675-1 1.5m-93.921 1.083c.048 1.165.285 1.402.604.605.289-.722.253-1.585-.079-1.917-.332-.332-.568.258-.525 1.312m5.079.417c0 1.375.227 1.938.504 1.25.278-.687.278-1.812 0-2.5-.277-.687-.504-.125-.504 1.25m38.342 5.934-3 .829 3 .237c1.65.13 3.563.164 4.25.075.688-.09 1.25.585 1.25 1.498 0 1.145-.596 1.504-1.921 1.158-4.954-1.295-16.01 2.539-23.989 8.319-2.24 1.622-4.752 2.95-5.581 2.95-.83 0-1.509.381-1.509.847 0 .465-1.63 2.525-3.623 4.577-3.892 4.008-3.58 5.756.873 4.882 2.08-.408 2.75-1.12 2.75-2.923 0-1.435.587-2.383 1.477-2.383.812 0 2.169-1.056 3.014-2.346 1.311-2.001 6.464-5.309 6.918-4.441.083.158.917 1.975 1.854 4.037 1.701 3.743 4.376 5.339 3.308 1.974-.488-1.536-.028-1.725 3.407-1.397 3.509.334 4.114.066 5.193-2.303.919-2.017 1.781-2.575 3.473-2.252 1.818.348 2.31-.071 2.554-2.171.245-2.113.767-2.549 2.781-2.322 5.305.596 7.069 8.833 2.529 11.808l-2.728 1.787 2.342.867c1.5.555 2.468.488 2.693-.187.194-.58.989-1.054 1.768-1.054.78 0 1.417-.499 1.417-1.108 0-.661.939-.873 2.324-.526 2.578.647 15.641-3.691 16.81-5.583 1.14-1.844-.931-4.719-4.693-6.512-1.892-.903-3.441-2.361-3.441-3.241 0-4.141-16.804-7.5-25.5-5.096M178 262.036c-3.575 1.041-8.525 2.097-11 2.346-2.475.249-6.525 1.124-9 1.944-2.475.821-5.931 1.787-7.681 2.147-1.749.361-3.722 1.307-4.383 2.104-.911 1.098-1.531 1.174-2.569.313-.972-.807-1.367-.817-1.367-.035 0 1.859-4.85 4.398-9.089 4.757-4.992.423-5.414.685-7.346 4.558-1.169 2.344-1.28 3.468-.441 4.48.832 1.002.808 1.727-.092 2.811-.928 1.118-.945 2.272-.074 4.912 1.245 3.774 3.785 5.459 4.687 3.11.313-.816 1.232-1.483 2.041-1.483 1.086 0 1.315-.723.871-2.75-.86-3.932 1.931-5.472 7.895-4.358 4.151.776 4.548.677 4.548-1.128 0-1.367.474-1.796 1.535-1.389 1.651.634 9.465-2.347 9.465-3.611 0-.42 1.238-.767 2.75-.771 4.114-.01 19.408-3.866 21.955-5.535 1.223-.802 4.198-1.458 6.611-1.458 2.412 0 5.764-.481 7.449-1.068 3.059-1.066 3.061-1.073 1.399-3.983-1.24-2.173-10.342-8.404-11.506-7.878-.087.039-3.083.924-6.658 1.965m107.168-.979C278.91 262.417 268 271.145 268 274.791c0 1.571 5.679-2.082 7.836-5.042 1.684-2.309 8.646-6.749 10.585-6.749 1.368 0 3.201-1.811 2.429-2.401-.192-.147-1.85.059-3.682.458m-88.918 3.335c.963.731 1.75 2.066 1.75 2.968 0 .902.675 1.64 1.5 1.64s1.5-.445 1.5-.989c0-1.658-3.35-5.013-4.972-4.979-1.264.026-1.226.261.222 1.36m97.438 4.254c-1.374 1.374-.662 3.496 1.062 3.164.962-.186 1.75-.969 1.75-1.74 0-1.579-1.764-2.472-2.812-1.424m112.391 3.937c.048 1.165.285 1.402.604.605.289-.722.253-1.585-.079-1.917-.332-.332-.568.258-.525 1.312m-107.638 6.842c-1.879 1.38-1.857 1.458.704 2.436 1.455.555 2.882 1.601 3.171 2.324.352.879.552.92.605.124.043-.655-.4-1.487-.986-1.849-.697-.431-.471-1.315.655-2.559 2.204-2.436-.982-2.801-4.149-.476M186.5 283.834c-3.451.384-15.529 3.857-26.671 7.669-6.343 2.17-8.738 3.655-13.829 8.575-7.165 6.926-7.236 8.382-.413 8.525 2.702.057 8.401.432 12.663.834 7.817.738 9.34.128 6.195-2.482-4.125-3.424-4.118-7.629.018-10.339 2.329-1.526 2.433-1.464 4.475 2.661 3.006 6.071 5.985 7.983 10.223 6.561 4.473-1.502 6.856-3.702 6.76-6.243-.067-1.773-.23-1.681-1.065.599-.638 1.746-1.495 2.498-2.433 2.138-.797-.306-2.112-.005-2.923.668-1.955 1.623-6.878.428-6.142-1.491.356-.927.045-1.217-.909-.851-.891.342-1.449-.056-1.449-1.035 0-1.449.303-1.446 3.394.028 4.921 2.347 8.606 1.203 8.606-2.67 0-3.178.858-3.723 2.8-1.781.933.933 1.2.6 1.2-1.5 0-3.282 1.659-3.458 7.39-.781 5.453 2.547 7.579 3.274 10.81 3.699 4.032.529 4.338-1.317.599-3.615-3.164-1.944-3.207-2.052-1.049-2.632 7.586-2.038-8.121-7.665-18.25-6.537M298 285.5c0 .825.436 1.5.969 1.5.532 0 .709-.675.393-1.5-.317-.825-.753-1.5-.969-1.5-.216 0-.393.675-.393 1.5M137 291c0 .55.477 1 1.059 1s.781-.45.441-1-.816-1-1.059-1-.441.45-.441 1m38 3.5c0 .825.675 1.5 1.5 1.5s1.5-.675 1.5-1.5-.675-1.5-1.5-1.5-1.5.675-1.5 1.5m210 2c0 .825.45 1.5 1 1.5s1-.675 1-1.5-.45-1.5-1-1.5-1 .675-1 1.5m-187.886 2.429c-.859.532-.962 1.047-.29 1.462.571.353 1.339.154 1.707-.441.918-1.486.188-2.012-1.417-1.021m170.901 6.262c-.008 2.58.435 4.969.985 5.309 1.3.803 1.3-6.489 0-8.5-.702-1.086-.974-.206-.985 3.191m-192.712 3.612c-.765.479-.875 1.271-.305 2.194 1.071 1.733 2.316.79 1.84-1.392-.201-.924-.822-1.249-1.535-.802M169 310.559c0 .857.45 1.281 1 .941.55-.34 1-1.041 1-1.559s-.45-.941-1-.941-1 .702-1 1.559m119.639 30.135c-.351.352-.639 1.724-.639 3.05 0 4.004-5.126 8.256-9.955 8.256-5.76 0-9.83 2.023-15.045 7.479-5.024 5.256-13.429 9.521-18.761 9.521h-3.512l2.615 2.615c1.439 1.439 3.958 2.72 5.603 2.849 1.643.129 3.627.766 4.409 1.415 1.138.945 1.985.583 4.25-1.818 1.556-1.648 4.169-3.291 5.806-3.651 1.637-.36 3.601-1.278 4.364-2.041.763-.763 1.752-1.162 2.197-.887.446.276 1.617-.733 2.603-2.241 2.489-3.806 3.974-5.17 6.099-5.6 8.068-1.635 12.327-6.52 12.327-14.139 0-4.183-.983-6.186-2.361-4.808m-155.56 11.889c.048 1.165.285 1.402.604.605.289-.722.253-1.585-.079-1.917-.332-.332-.568.258-.525 1.312m88.076 11.223c-2.344.711-2.345.712-.328 2.537 2.468 2.234 8.184 3.019 14.105 1.936l4.431-.811-2.931-1.922c-3.096-2.029-11.259-2.959-15.277-1.74m-91.085 1.885c-.038 1.205.38 2.469.93 2.809 1.183.731 1.183-.248 0-3-.829-1.928-.862-1.921-.93.191m237.595 12.483c-.618 2.364-.086 3.826 1.394 3.826.518 0 .941-1.35.941-3 0-3.478-1.503-4.01-2.335-.826M367 389.031c0 .533.675.969 1.5.969s1.5-.177 1.5-.393c0-.216-.675-.652-1.5-.969-.825-.316-1.5-.139-1.5.393m-61 2.09c-1.925.43-5.686.743-8.359.697-2.672-.046-5.147.373-5.5.932-.352.559-6.041 1.258-12.641 1.553-6.6.296-12.9.774-14 1.062-1.1.289-3.799.816-5.998 1.172l-3.999.647 2.792 1.463c2.521 1.321 3.103 1.28 5.998-.419 3.758-2.205 9.731-2.82 12.58-1.296 1.327.71 2.215.734 2.625.071.695-1.124 6.795-1.376 7.847-.324.373.373 2.361.71 4.417.75 3.495.066 3.724.26 3.528 2.981-.285 3.942-1.578 5.042-4.249 3.612-1.858-.994-2.545-.791-4.743 1.408-2.733 2.732-4.759 3.251-5.843 1.497-.418-.676-1.183-.333-2.063.923-1.67 2.385-7.305 4.415-11.138 4.013-1.515-.159-3.205-.012-3.755.326-2.507 1.544-13.893 3.13-14.273 1.988-.278-.834-.762-.784-1.726.18-2.646 2.647-14.756 2.942-16.673.407-1.607-2.124-1.752-2.142-3.624-.448-1.869 1.692-2.103 1.675-5.603-.389-5.168-3.049-7.961-8.811-3.6-7.427 1.41.448 2 .18 2-.908 0-1.243.499-1.353 2.565-.567 3.303 1.255 3.435 1.239 3.435-.418 0-1.904 2.527-2.72 5.249-1.696 1.487.561 3.194.366 5.029-.571 1.71-.874 4.041-1.183 6.064-.804 2.308.433 3.66.167 4.541-.895.69-.832 2.65-1.819 4.354-2.193 2.72-.597 2.878-.804 1.291-1.692-2.143-1.199-13.239-.241-15.101 1.305-1.774 1.472-13.192 2.372-14.699 1.159-.779-.628-3.423-.671-7.228-.118-3.3.479-8.841.784-12.312.677-6.55-.202-8.139.667-8.173 4.471-.01 1.193.762 1.75 2.426 1.75 1.343 0 2.719.45 3.059 1 .34.55 1.253 1 2.029 1s4.817 2.311 8.979 5.135c8.146 5.526 8.331 5.571 25.007 5.971 4.958.118 9.911-.264 11.006-.85 1.095-.586 4.128-.824 6.739-.53 2.883.325 7.007-.087 10.494-1.048 3.16-.871 7.725-1.799 10.144-2.062 2.42-.263 4.67-.847 5-1.297.62-.844 3.724-1.496 8.102-1.701 1.977-.093 2.427.3 2.15 1.878-.335 1.909-.267 1.92 1.578.25 1.061-.96 2.624-1.746 3.473-1.746 1.577 0 6.356-4.939 13.049-13.487 5.432-6.937 4.814-8.968-2.25-7.392m61.386 6.316c-.33.859-.354 2.205-.052 2.99.922 2.404-1.995 4.048-4.864 2.741-3.173-1.445-3.159-.164.03 2.832 2.701 2.537 3.292 5 1.2 5-.715 0-1.895-.562-2.622-1.25-1.09-1.03-1.126-.866-.2.934 1.383 2.692 1.516 6.115.184 4.766-.515-.522-1.637-2.3-2.493-3.95-.951-1.833-1.559-2.342-1.563-1.309-.003.93.444 1.969.994 2.309 1.896 1.172.994 2.221-1.5 1.745-2.508-.48-3.27 1.538-2.53 6.701.165 1.145-.091 1.199-1.223.259-.787-.653-1.737-.882-2.111-.508-.373.374-.598-.193-.499-1.259.388-4.178-.186-8.438-1.137-8.438-.55 0-1 .68-1 1.511 0 .831-.969 3.573-2.154 6.094-1.99 4.232-2.381 4.538-5.106 3.993-2.358-.472-2.829-.29-2.345.906l1.212 2.996c.39.963.032 1.5-1 1.5-.884 0-1.607.637-1.607 1.417 0 .779-.562 1.643-1.25 1.921-.747.301-.545.536.5.583 1.031.047 1.75.867 1.75 1.996 0 1.054.563 2.143 1.25 2.421.77.31.6.534-.441.583-2.931.137-2.977 1.925-.089 3.491 1.529.83 2.232 1.526 1.561 1.548-.67.022-.959.715-.643 1.54.353.918 0 1.5-.909 1.5-.816 0-2.044-.675-2.729-1.5s-2.116-1.5-3.181-1.5c-1.087 0-1.655-.457-1.294-1.04.423-.685-.32-.798-2.173-.333-1.549.388-3.344.706-3.989.706s-.925.646-.622 1.435c.303.788-.024 1.789-.725 2.222-1.871 1.156 1.869 5.938 4.675 5.979 1.205.017 2.459.464 2.786.994.784 1.269-5.757.843-6.673-.434-1.331-1.859-1.853.213-.77 3.062.637 1.674.708 2.995.17 3.174-3.182 1.061-4.697 3.241-3.116 4.485 2.246 1.768 2.785 4.02 1.314 5.491-1.909 1.909-3.974 1.654-2.36-.291 1.066-1.285.983-1.842-.485-3.25-1.676-1.608-1.737-1.583-1.124.466.378 1.263.15 2.474-.547 2.904-.755.467-.932.314-.481-.415.392-.635.236-1.155-.346-1.155s-1.066.563-1.074 1.25c-.011.833-.339.75-.985-.25-.831-1.287-.972-1.255-.985.224-.008.949 1.32 2.415 2.951 3.258 3.063 1.584 3.218 4.093.359 5.818-.729.44-1.329 1.79-1.335 3-.021 4.816-4.71 12.7-7.552 12.7-2.396 0-2.588-.268-1.967-2.75.379-1.512 1.327-3.11 2.109-3.55 1.753-.987 1.878-2.792.17-2.45-.843.169-1.148-.807-.936-3 .367-3.8-.114-3.983-3.106-1.185-2.052 1.919-2.084 2.134-.458 3.05.962.541 1.75 1.715 1.75 2.609 0 1.338-.412 1.238-2.331-.565l-2.331-2.19.081 2.265c.058 1.626-.413 2.183-1.669 1.972-1.205-.202-1.75.361-1.75 1.809 0 1.157-.419 1.844-.931 1.528-.512-.317-1.196-.146-1.521.379-.324.525-1.481.784-2.569.574-1.483-.286-1.983.168-1.994 1.811-.013 1.783-.197 1.912-.985.693-1.554-2.404-1.155-4 1-4 1.111 0 2-.667 2-1.5 0-.825-.45-1.5-1-1.5s-1 .4-1 .889-.692.826-1.537.75c-.845-.076-2.308 1.211-3.25 2.861-.942 1.65-1.856 3.218-2.031 3.485-.176.267-1.094-.543-2.041-1.799-1.871-2.479-5.141-2.143-5.141.528 0 .845.587 1.275 1.344.984.944-.362 1.216.151.915 1.727-.236 1.233-.953 2.263-1.594 2.289-.641.026-1.953.375-2.915.774-1.447.6-1.75.188-1.75-2.381 0-3.109-1.388-4.211-2.338-1.857-.403 1-.52 1-.583 0-.109-1.722-2.079-1.586-2.079.143 0 .766-.712 1.666-1.582 2-2.235.858-2.418.79-2.418-.893 0-1.956-1.895-1.938-2.648.026-.84 2.189-2.964.165-3.702-3.528-.431-2.152-1.016-2.795-2.151-2.359-1.034.396-1.344 1.273-.922 2.605.423 1.332.265 1.777-.47 1.322-.609-.376-1.107-.207-1.107.375s-.687 1.059-1.526 1.059c-1.367 0-1.367-.306 0-2.95 1.9-3.673 1.938-5.678.124-6.374-1.895-.727-2.598.157-2.598 3.268 0 3.618-3.707 6.83-5.34 4.628-1.038-1.399-1.462-1.406-4.027-.067-2.711 1.416-2.839 1.392-2.356-.456.281-1.074.034-2.112-.549-2.306-.739-.247-.723-1.319.054-3.548 1.177-3.376.303-4.207-1.782-1.695-1.596 1.923-2.749 1.894-4.765-.122-1.496-1.496-1.49-1.718.072-2.86.931-.681 1.68-1.864 1.664-2.628-.017-.785-1.316.024-2.986 1.86-3.229 3.549-4.545 4.151-3.581 1.639.439-1.142.188-1.446-.861-1.044-.813.312-1.749.13-2.08-.405-.331-.535-1.054-.693-1.608-.35-.554.342-2.747-.776-4.873-2.484-2.125-1.708-4.454-3.12-5.173-3.138-.835-.02-.639-.539.541-1.433 1.018-.771 1.596-1.814 1.284-2.318-.546-.883 1.788-2.36 5.783-3.659 1.499-.488 1.654-.887.709-1.832-.793-.793-1.453-.861-1.918-.197-.626.895-5.616 3.471-6.724 3.471-.232 0-.163-.672.152-1.494.316-.822 1.021-1.218 1.569-.88.553.343.491-.325-.14-1.505-.625-1.167-1.907-2.085-2.85-2.042-1.157.053-1.284.251-.392.608.985.393.749 1.14-.924 2.921-2.868 3.052-3.899 3.024-3.899-.108 0-2.61-.93-3.17-2.558-1.542-.59.59-1.531.605-2.445.04-1.271-.785-1.197-1.154.508-2.533 1.963-1.588 1.958-1.606-.323-1.115-2.673.575-8.182-1.097-8.182-2.483 0-.539-.85-.482-2 .133-1.356.726-2 .737-2 .035 0-.569.675-1.035 1.5-1.035s1.493-.562 1.485-1.25c-.026-2.111-1.7-4.044-2.873-3.319-1.752 1.083-1.299-.598.773-2.867 2.692-2.948 3.656-6.564 1.749-6.564-.894 0-1.629 1.112-1.818 2.75-.227 1.978-.878 2.75-2.316 2.75-2.08 0-4.5 1.729-4.5 3.214 0 .472-.9.857-2 .857-1.253 0-2-.666-2-1.785 0-.982-.661-1.786-1.469-1.786-3.466 0 1.411 5.794 5.949 7.066 1.111.312 1.903 1.257 1.761 2.101-.143.843 1.319 3.208 3.25 5.254 1.93 2.047 3.509 4.051 3.509 4.454 0 1.1 6.296 6.938 7.879 7.305 1.956.454 6.121 4.666 6.121 6.191 0 1.801 4.647 5.965 5.836 5.231 1.347-.833 4.285.394 3.599 1.503-.304.492.122.895.947.895s1.762.423 2.081.941c.344.555-.81.715-2.813.39-1.995-.324-3.679-.093-4.082.559-.784 1.268-1.033 1.214 6.961 1.52 7.871.301 13.823 5.4 9.455 8.1-1.601.99-.016 2.626 2.362 2.438 4.884-.384 7.644.101 7.404 1.302-.139.695.417 1.054 1.25.808 3.631-1.068 13.171-.213 14.881 1.334 2.171 1.965 3.233 2.069 2.535.249-.528-1.374 8.102-.675 10.581.857.552.341 1.003.095 1.003-.547 0-.722.885-.946 2.316-.586 1.394.349 3.279-.094 4.736-1.114 1.33-.932 3.776-1.775 5.434-1.874 1.658-.099 4.364-.649 6.014-1.222 3.776-1.311 20.967-6.155 21.846-6.155.36 0 .654.623.654 1.383 0 .761.9 1.619 2 1.907 1.197.313 2 1.364 2 2.616 0 1.152.45 2.094 1 2.094s1-.873 1-1.941c0-2.251 1.572-3.561 2.49-2.075.345.559 1.753 1.016 3.128 1.016 1.412 0 2.231-.435 1.882-1-.34-.55.084-1 .941-1s1.559-.675 1.559-1.5c0-2.436 4.542-1.84 5.697.747.978 2.191 1.115 2.13 5.615-2.5 2.538-2.611 4.996-4.747 5.463-4.747 1.191 0 5.225-5.631 5.225-7.293 0-.755.337-1.711.75-2.124.413-.412.773-1.05.801-1.416.027-.367 1.715-2.387 3.75-4.488 2.034-2.102 3.699-4.713 3.699-5.802 0-1.302 1.028-2.34 3-3.027 1.65-.575 3-1.5 3-2.055 0-.555-.6-.779-1.333-.497-.734.281-1.334-.101-1.334-.849 0-.749.409-1.109.908-.8 1.093.676 5.759-3.514 5.759-5.171 0-.646 1.337-1.212 2.972-1.258 3.243-.092 5.01 3.584 5.022 10.447.003 1.741.569 3.354 1.256 3.583.758.253 1.295 2.402 1.364 5.459.063 2.773.437 5.565.832 6.203.394.639.422 2.912.06 5.051-.361 2.139-.795 5.946-.965 8.461-.17 2.514-1.072 5.737-2.005 7.161-3.285 5.014-.792 3.372 3.408-2.244 8.745-11.693 16.275-29.316 17.625-41.248.828-7.319-.987-9.642-8.247-10.556-9.028-1.136-10.441-2.669-11.808-12.806-.353-2.623-1.012-4.541-1.464-4.262-.452.279-1.032-.596-1.29-1.946-.258-1.349-.135-2.581.274-2.738.409-.157.508-2.673.222-5.591-.327-3.329-.938-5.146-1.639-4.877-1.236.475-1.363-12.645-.174-18.059.713-3.246-.995-5.589-2.057-2.821m-4.136 2.225c-1.69.682-1.589 2.338.143 2.338.766 0 1.652-.675 1.969-1.5.588-1.533.096-1.729-2.112-.838m1.779 19.299c-.809.512-1.211 1.191-.893 1.509.319.318 1.148-.108 1.844-.946 1.443-1.738 1.166-1.902-.951-.563m-.487 3.993c-1.65 1.822-1.633 1.883.382 1.356 2.441-.639 3.499-1.93 2.226-2.717-.486-.3-1.659.312-2.608 1.361M332.638 433.5c-.316.825-.139 1.5.393 1.5.533 0 .969-.675.969-1.5s-.177-1.5-.393-1.5c-.216 0-.652.675-.969 1.5m-172.264.841c.753 5.134 8.509 10.109 11.342 7.276 1.387-1.387-1.571-2.983-3.13-1.689-1.722 1.429-3.586.64-3.586-1.518 0-.81-.672-1.731-1.494-2.046-.822-.316-1.275-.929-1.006-1.364.269-.435-.14-1.031-.907-1.326-.768-.295-1.316.006-1.219.667M353 435c0 .55.45 1 1 1s1-.45 1-1-.45-1-1-1-1 .45-1 1m-174.808 8.075c.197.591.786 1.075 1.308 1.075s1.111-.484 1.308-1.075c.197-.591-.391-1.075-1.308-1.075s-1.505.484-1.308 1.075M350 443c0 .55.45 1 1 1s1-.45 1-1-.45-1-1-1-1 .45-1 1m-177.994 3.25.006 3.25 1.494-2.864C175.35 443.1 175.35 443 173.5 443c-1.027 0-1.498 1.025-1.494 3.25M331 444.5c0 .825.675 1.5 1.5 1.5.933 0 1.5.944 1.5 2.5 0 1.51.571 2.5 1.441 2.5 2.687 0 2.561-1.786-.346-4.898-3.237-3.465-4.095-3.801-4.095-1.602M169 446c0 .55.45 1 1 1s1-.45 1-1-.45-1-1-1-1 .45-1 1m9.5 2c-.34.55.309 1 1.441 1 1.132 0 2.059-.45 2.059-1s-.648-1-1.441-1-1.719.45-2.059 1m151.5 0c0 .55.45 1 1 1s1-.45 1-1-.45-1-1-1-1 .45-1 1m-138.25 2.758c-2.309.513-2.22 2.507.21 4.706 1.078.976 1.925 2.058 1.882 2.405-.247 1.979.323 3.131 1.551 3.131 2.27 0 2.579-2.58.519-4.343-1.945-1.665-2.739-5.286-.912-4.157.55.34 1 .19 1-.334 0-1.231-2.026-1.902-4.25-1.408M365.158 452c0 1.375.227 1.938.504 1.25.278-.687.278-1.812 0-2.5-.277-.687-.504-.125-.504 1.25M208.5 459c-.731 1.183.248 1.183 3 0 1.928-.829 1.921-.862-.191-.93-1.205-.038-2.469.38-2.809.93m2.5 2.059c0 .582.45.781 1 .441s1-.816 1-1.059-.45-.441-1-.441-1 .477-1 1.059m4.904 2.556c-1.16 1.398-1.086 1.566.545 1.25 1.037-.201 2.073-.927 2.301-1.615.594-1.784-1.26-1.546-2.846.365m-20.825 3.968c.048 1.165.285 1.402.604.605.289-.722.253-1.585-.079-1.917-.332-.332-.568.258-.525 1.312M309 469c-1.465.947-1.308 1.119 1.25 1.375.688.069 1.351 1.25 1.474 2.625s-.027 1.938-.334 1.25c-.965-2.166-1.886-1.358-1.996 1.752-.141 3.951 1.852 3.834 3.374-.197.994-2.635.941-3.6-.304-5.5-1.736-2.649-1.513-2.566-3.464-1.305m-80.5 5c-.34.55.11 1 1 1s1.34-.45 1-1c-.34-.55-.79-1-1-1-.21 0-.66.45-1 1m-8.5 5c-.901.582-1.025.975-.309.985.655.008 1.469-.435 1.809-.985.767-1.242.421-1.242-1.5 0m23 3.059c0 .582.45.781 1 .441s1-.816 1-1.059-.45-.441-1-.441-1 .477-1 1.059m16 8.41c0 .894.586 1.243 1.5.893.825-.317 1.5-.978 1.5-1.469 0-.491-.675-.893-1.5-.893s-1.5.661-1.5 1.469m67.667 3.198c-1.675 1.674-.662 3.4 1.361 2.318 1.115-.597 1.764-1.513 1.441-2.035-.686-1.109-1.858-1.228-2.802-.283M267.5 502c-.34.55.084 1 .941 1s1.559-.45 1.559-1-.423-1-.941-1-1.219.45-1.559 1m-26.5 8c-3.03.638-3.142.754-.833.868 1.466.073 2.816.551 3 1.062.521 1.455 6.066 1.733 6.558.329.311-.887-.516-1.098-2.895-.74-1.831.275-2.767.234-2.08-.093 1.339-.635 1.749-2.514.5-2.294-.412.072-2.325.463-4.25.868m-39 50.582c0 1.689 5.779 13.164 7.015 13.927 2.081 1.287 1.621.01-2.702-7.5-2.372-4.12-4.313-7.012-4.313-6.427" fill-rule="evenodd"/>
</svg>