<!DOCTYPE svg PUBLIC "-//W3C//DTD SVG 1.1//EN" "http://www.w3.org/Graphics/SVG/1.1/DTD/svg11.dtd">
<svg xmlns="http://www.w3.org/2000/svg" viewBox="0 0 1185 256">
<path fill="#28282a" d="M1084.655 53.829c-.91 1.006-1.655 2.076-1.655 2.379 0 .303-4.44 9.718-9.866 20.922a31656.34 31656.34 0 0 0-22.637 46.87c-7.024 14.575-16.698 34.6-21.498 44.5-14.86 30.652-14.913 30.828-9.949 33.199 6.136 2.931 6.743 1.962 31.443-50.199 6.039-12.753 26.781-55.936 36.387-75.753 8.412-17.355 8.812-18.586 7.085-21.813-1.362-2.545-7.044-2.61-9.31-.105M564.2 55.2c-1.333 1.333-1.59 6.639-.411 8.493.418.657 3.448 1.332 6.735 1.5l5.976.307.259 51.833c.294 58.912 1.152 52.68-8.663 62.999-16.112 16.941-39.839 12.76-49.689-8.754-6.495-14.187-6.391-39.137.222-53.221 5.099-10.858 17.78-18.192 26.488-15.319 3.431 1.133 3.986 1.805 5.339 6.46 2.71 9.32 9.617 13.319 14.255 8.252 8.481-9.266-1.578-22.307-18.764-24.326-24.363-2.864-43.992 20.098-43.93 51.388.085 42.256 34.121 68.538 63.752 49.229 3.152-2.055 6.579-4.693 7.615-5.865 2.718-3.072 3.616-1.853 3.616 4.908 0 7.144 1.167 7.925 11.815 7.901 7.616-.017 11.544-1.558 11.998-4.708.587-4.079-1.486-6.165-6.831-6.874l-4.982-.661v-27.661c0-30.294.519-34.223 5.938-44.958C605.29 95.615 626.284 92.838 633.67 111c1.658 4.076 1.83 7.935 1.83 40.967v36.467l-4.5.858c-6.843 1.304-9.074 5.634-5 9.708 1.799 1.799 3.333 2 15.277 2 14.952 0 17.723-.928 17.723-5.934 0-3.54-1.34-4.64-7-5.747l-4.5-.88-.5-38.97-.5-38.969-2.695-5.107c-6.168-11.692-12.083-15.399-24.544-15.383-11.717.015-19.619 4.26-25.618 13.763-4.59 7.272-4.643 7.032-4.643-21.014 0-19.168-.327-26.686-1.2-27.559-1.646-1.646-21.954-1.646-23.6 0m239.149.976c-3.165 1.532-5.784 6.954-4.955 10.259 1.809 7.206 11.513 10.16 16.92 5.15 8.617-7.986-1.194-20.621-11.965-15.409m-638.724 9.308c-2.259 1.71-3.523 7.636-3.581 16.791-.05 7.723-1.14 8.725-9.487 8.725-4.99 0-6.844 1.647-6.379 5.666.405 3.507 3.764 5.3 9.965 5.319 3.302.011 4.818.472 5.25 1.597.334.87.607 20.234.607 43.032 0 45.579-.043 45.218 6.162 51.12 8.166 7.767 24.335 5.776 30.338-3.735 3.145-4.981 3.426-11.433.566-12.964-4.898-2.621-10.066.097-10.066 5.294 0 6.39-8.892 9.167-12.927 4.036-2.024-2.572-2.073-3.65-2.073-45.383v-42.749l6.621-.422c7.049-.448 9.379-2.014 9.379-6.302 0-3.529-1.999-4.509-9.2-4.509H173V79.082c0-6.555-.273-12.63-.607-13.5-.754-1.965-5.229-2.021-7.768-.098m693.594.783c-1.965 2.092-2.221 3.44-2.234 11.797-.019 11.801-.268 12.189-8.156 12.735C840.512 91.305 839 92.196 839 96c0 3.865 2.134 5.221 9.29 5.906l6.21.594.5 43.5c.478 41.554.592 43.656 2.548 46.986 6.996 11.909 25.493 12.843 33.568 1.695 3.577-4.938 4.067-11.977.95-13.646-5.057-2.706-10.066.296-10.066 6.033 0 6-8.997 8.294-12.927 3.297-2.024-2.572-2.073-3.649-2.073-45.5V102h5.777c6.987 0 10.223-1.878 10.223-5.934 0-3.96-1.642-4.916-9.038-5.263L867.5 90.5l-.5-13-.5-13-3.031-.297c-2.152-.211-3.676.389-5.25 2.064m60.3.123c-2.328 2.328-2.52 3.224-2.534 11.815-.019 11.571-.316 12.047-7.856 12.592-13.73.993-11.966 11.203 1.936 11.203H915v42.64c0 42.212.023 42.686 2.25 47.168 8.438 16.98 36.75 12.71 36.75-5.542 0-8.462-10.079-8.9-11.584-.504-.934 5.216-3.006 7.238-7.416 7.238-7.69 0-7.464 1.381-7.78-47.49l-.281-43.281 7.089-.4c7.608-.43 8.93-1.309 8.957-5.957.022-3.755-1.706-4.725-9.023-5.069L927.5 90.5l-.5-13-.5-13-2.731-.315c-1.872-.215-3.523.478-5.25 2.205m-673.12 23.642c-26.009 5.155-42.172 31.777-38.616 63.602 3.559 31.841 24.617 50.147 55.217 47.999 22.133-1.554 37.306-13.427 44.695-34.976 3.298-9.617 4.019-29.853 1.395-39.157-8.009-28.405-33.016-43.35-62.691-37.468m205.286-.08c-8.913 2.88-15.097 11.465-15.097 20.957 0 11.941 3.576 16.64 24.212 31.821 19.722 14.509 23.997 20.545 22.925 32.368-1.092 12.036-8.643 18.413-21.765 18.38-14.238-.035-21.691-6.365-16.5-14.014 5.794-8.538 1.47-20.167-6.634-17.843-8.626 2.474-12.127 17.071-6.428 26.796 7.402 12.629 30.286 18.376 44.834 11.258 15.061-7.369 21.874-28.052 14.412-43.754-3.793-7.983-7.513-11.952-20.474-21.848-22.476-17.162-26.473-23.144-21.22-31.759 2.605-4.272 5.379-5.583 11.689-5.526 6.924.062 7.361.437 7.361 6.321 0 8.137 4.225 13.891 10.199 13.891 6.847 0 8.397-12.12 2.4-18.759-6.71-7.427-20.638-11.286-29.914-8.289m277.033.074c-8.152 2.06-18.383 9.195-23.596 16.453-4.527 6.304-5.011 5.829-5.336-5.229l-.286-9.75-11.357-.284C674.709 90.906 673 91.484 673 96c0 3.82 2.369 5.416 8.904 6l5.596.5v85.954l-4.97.833c-6.079 1.019-7.53 2.133-7.53 5.779 0 5.08 2.695 5.934 18.723 5.934 12.944 0 14.464-.187 16.277-2 4.198-4.198 1.914-8.549-4.984-9.498l-5.016-.69v-28.249c0-24.945.218-28.882 1.861-33.656 8.326-24.186 35.852-36.388 48.805-21.635 4.845 5.518 5.334 9.981 5.334 48.649v34.823l-4.2.672c-7.055 1.128-9.533 6.557-4.577 10.027 3.7 2.592 28.093 2.241 30.777-.443 4.209-4.209 1.87-8.683-5.018-9.597l-4.982-.661-.02-32.621c-.026-42.318-1.123-49.519-8.893-58.369-6.011-6.846-20.618-10.443-31.369-7.726M368 91.81c-7.435 2.477-13.078 6.207-17.629 11.65-5.086 6.085-5.371 5.875-5.371-3.96V91h-10.845c-9.236 0-11.09.271-12.5 1.829-3.851 4.255-.914 8.39 6.487 9.133l5.358.538v116l-5 .518c-6.518.675-7.5 1.404-7.5 5.566 0 4.795 2.194 5.416 19.131 5.416 16.004 0 17.869-.574 17.869-5.5 0-4.095-2.027-5.5-7.934-5.5H346v-16.5c0-9.075.366-16.5.813-16.5.447 0 2.135 1.401 3.75 3.113 14.847 15.738 41.283 15.567 54.913-.356 16.33-19.076 18.347-61.088 3.933-81.888-9.497-13.704-26.7-19.96-41.409-15.059m426.667-.143c-1.155 1.154-.724 7.041.596 8.136.694.576 3.057 1.194 5.25 1.372l3.987.325.26 43.687.261 43.687-4.538.681c-6.511.976-8.549 5.442-4.294 9.406 2.916 2.717 26.859 3.095 30.588.482 4.698-3.29 2.352-8.49-4.485-9.94l-4.792-1.017-.26-47.402c-.181-32.974-.598-47.811-1.372-48.743-1.172-1.412-19.869-2.007-21.201-.674M244 101.153c-18.545 7.288-29.778 32.575-24.898 56.048 6.862 33.008 43.479 46.067 65.349 23.306 22.237-23.143 16.341-65.259-10.994-78.536-7.175-3.485-21.65-3.887-29.457-.818m126.734-1.065C353.852 104.066 345 119.478 345 144.896c0 30.447 11.953 46.856 33.473 45.954 12.493-.523 19.919-6.795 25.587-21.611 3.711-9.7 4.039-33.474.613-44.442-6.196-19.836-18.035-28.456-33.939-24.709M59.339 132.199C52.553 138.908 47 144.877 47 145.464c0 .586 5.519 6.572 12.264 13.301 12.936 12.904 15.537 14.323 19.081 10.406 2.738-3.025 2.033-4.337-7.345-13.671-4.95-4.927-9-9.312-9-9.745 0-.432 4.05-4.871 9-9.864 9.276-9.356 10.306-11.399 7.171-14.236-3.76-3.403-5.985-2.157-18.832 10.544m1042.902-10.213c-2.08 3.33-1.556 4.243 7.759 13.514 4.95 4.927 9 9.427 9 10 0 .573-4.05 5.073-9 10-9.207 9.164-9.99 10.609-7.517 13.875 3.08 4.066 5.84 2.496 19.106-10.867l12.65-12.741-12.855-12.884c-13.496-13.525-16.451-15.207-19.143-10.897" fill-rule="evenodd"/>
</svg>