<svg xmlns="http://www.w3.org/2000/svg" viewBox="135 53.99 215.28 47.01">

<path d="M262.315 55.492C259.45 57.499 251.217 68.009 246.251 76c-7.368 11.857-6.39 18.106 1.195 7.637 6.549-9.039 12.165-10.26 7.689-1.671-2.885 5.535-2.753 7.041.615 7.004 2.4-.027 2.521-.164.95-1.078-1.697-.987-1.654-1.295.75-5.398 3.364-5.739 3.368-8.494.013-8.494C255.01 74 246 81.932 246 84.092c0 .499-.459.908-1.02.908-2.241 0 3.641-8.823 9.329-13.994 9.973-9.064 16.298-21.322 8.006-15.514m-5.793 9.203c-3.037 3.682-5.522 7.152-5.522 7.712 0 1.454 9.225-7.825 11.341-11.407 3.114-5.271-.114-3.222-5.819 3.695M170.926 66.5c-2.81 3.575-5.592 6.5-6.184 6.5-.591 0-.798.277-.46.615.338.339-.73 3.137-2.374 6.218-4.274 8.009-2.277 12.851 3.813 9.246 1.548-.917 1.455-1.023-.718-.816-3.6.342-3.754-3.112-.412-9.252 2.633-4.839 2.884-5.016 7.318-5.153l4.591-.142-4-.608-4-.608 4.028-4.5c6.542-7.307 6.984-8 5.111-8-.883 0-3.904 2.925-6.713 6.5m140.94-2.654C305.851 70.717 303.172 74 303.581 74c.22 0-.905 2.138-2.501 4.75-4.358 7.134-4.479 11.265-.33 11.22 2.432-.027 2.538-.154.916-1.097-2.239-1.302-1.669-4.415 1.945-10.623 2.322-3.989 2.762-4.26 7.181-4.418 4.354-.156 4.426-.198.958-.56-4.668-.489-4.682-.362.75-6.72 2.475-2.897 4.5-5.557 4.5-5.91 0-1.602-2.043-.328-5.134 3.204m14 0C319.605 70.998 317.179 74 317.658 74c.715 0-3.546 6.017-7.067 9.979-2.176 2.448-2.375 2.892-.671 1.5 2.135-1.746 2.344-1.773 1.781-.229-1.447 3.968 2.441 6.272 6.299 3.732 1.17-.771.951-.932-.997-.735-3.538.359-3.623-2.608-.25-8.747 2.534-4.613 3.095-5.046 7.247-5.6l4.5-.6-3.849-.15-3.849-.15 5.099-5.886c2.804-3.237 5.099-6.162 5.099-6.5 0-1.575-2.063-.276-5.134 3.232m-24.137.286c-2.07 1.158-2.279 2.868-.351 2.868 1.714 0 4.014-2.64 2.899-3.329-.451-.278-1.598-.071-2.548.461m-80.739 6.38c-.712.858-1.47 4.132-1.683 7.274-.424 6.251-2.765 10.528-6.03 11.017-2.316.347-3.634-2.104-2.705-5.029.595-1.874.714-1.86 3.265.39 2.101 1.853 2.288 1.906.906.257-.959-1.143-1.743-2.591-1.743-3.218 0-2.095-2.848-.078-3.817 2.703-2.038 5.845 4.069 8.364 9.319 3.844 2.24-1.928 2.728-3.393 3.409-10.25.895-8.997.874-9.151-.921-6.988m-27.521 8.182c-2.183 4.782-5.656 11.322-7.719 14.534-3.747 5.835-4.477 7.772-2.928 7.772 1.632 0 16.092-26.195 16.147-29.25.065-3.644-1.662-1.464-5.5 6.944m-9.089-5.165c-2.025 2.025-2.47 3.343-2.234 6.612.237 3.281-.163 4.454-2.036 5.971-5.132 4.156-6.604.462-2.268-5.691 3.662-5.194 2.864-5.786-1.579-1.171-6.344 6.587-3.193 13.031 3.833 7.837 1.553-1.148 4.079-2.139 5.614-2.203 1.69-.07 2.1-.296 1.04-.573-2.193-.573-2.224-1.673-.095-3.439 2.073-1.719 4.607-7.638 3.818-8.916-1.032-1.67-3.483-1.037-6.093 1.573m1.309.262c-2.239 2.475-3.509 8.649-1.652 8.03 1.75-.583 4.765-4.804 5.156-7.217.421-2.601-1.486-3.043-3.504-.813m16.712-.091c-1.069.99-1.506 1.462-.972 1.05.534-.412 2.006-.75 3.271-.75 6.16 0-1.121 11.848-8.484 13.805-2.703.719-3.076 1.016-1.367 1.092 9.049.398 20.686-15.695 12.073-16.697-1.455-.169-3.424.484-4.521 1.5m30.96 1.153c-6.038 4.375-9.094 9.95-7.615 13.897.502 1.341 7.819 1.763 8.602.496.256-.415-.955-.752-2.691-.75-4.475.006-4.625-3.071-.42-8.585 5.196-6.812 12.569-9.843 8.375-3.442-.912 1.392-1.288 2.531-.835 2.531 1.569 0 3.223-2.411 3.223-4.7 0-3.262-3.7-3.025-8.639.553m59.812-.004c-3.944 4.204-9.859 11.846-8.066 10.422 1.303-1.035 1.535-.878 1.47 1-.057 1.648.574 2.316 2.423 2.564 2.021.27 2.26.088 1.25-.95-2.074-2.132-1.462-3.991 3.316-10.073 4.682-5.959 4.402-8.073-.393-2.963M141.5 76.625c-1.798 1.53-2.166 2.138-.918 1.518 1.833-.91 5.271-4.202 4.29-4.107-.204.02-1.722 1.185-3.372 2.589m134.75-.636c-1.788 1.09-3.25 2.303-3.25 2.696 0 .393.54.175 1.2-.485 1.184-1.184 5.8-1.709 5.8-.66 0 .297-.931 2.365-2.07 4.597-2.248 4.407-1.984 6.863.739 6.863 1.317 0 1.453-.278.566-1.165-.887-.887-.536-2.283 1.466-5.846 4.049-7.201 2.015-9.942-4.451-6m68.951.188c.795 1.197 2.538 2.858 3.872 3.692 1.852 1.157 1.611.641-1.019-2.177-3.881-4.158-5.003-4.754-2.853-1.515m-79.487 4.462c-2.043 3.102-3.714 6.027-3.714 6.5 0 3.552 8.211-5.086 8.651-9.101.482-4.411-.745-3.764-4.937 2.601M135 81.592c0 1.333 4.706 5.055 5.428 4.293.202-.212-.937-1.571-2.531-3.02-1.821-1.656-2.897-2.129-2.897-1.273m210.25 1.992c-1.788.782-3.25 1.622-3.25 1.867 0 .738 5.961-1.578 6.561-2.549.666-1.079.762-1.099-3.311.682m-21.378 1.166c-1.243 1.586-1.208 1.621.378.378 1.666-1.307 2.195-2.128 1.372-2.128-.207 0-.995.787-1.75 1.75M293 87c-.901.582-1.025.975-.309.985.655.008 1.469-.435 1.809-.985.767-1.242.421-1.242-1.5 0m12 1c-.901.582-1.025.975-.309.985.655.008 1.469-.435 1.809-.985.767-1.242.421-1.242-1.5 0" fill-rule="evenodd"/>

</svg>